HIERARCHY
ROOT root
{
	OFFSET 0.000000 0.000000 0.000000
	CHANNELS 6 Xposition Yposition Zposition Zrotation Yrotation Xrotation
	JOINT lhip
	{
		OFFSET 0.058581 -0.082280 -0.017664
		CHANNELS 3 Zrotation Yrotation Xrotation
		JOINT lknee
		{
			OFFSET 0.043451 -0.386469 0.008037
			CHANNELS 3 Zrotation Yrotation Xrotation
			JOINT lankle
			{
				OFFSET -0.014790 -0.426874 -0.037428
				CHANNELS 3 Zrotation Yrotation Xrotation
				JOINT ltoe
				{
					OFFSET 0.041054 -0.060286 0.122042
					CHANNELS 3 Zrotation Yrotation Xrotation
					End Site
					{
						OFFSET 0.000000 0.000000 0.000000
					}
				}
			}
		}
	}
	JOINT rhip
	{
		OFFSET -0.060310 -0.090513 -0.013543
		CHANNELS 3 Zrotation Yrotation Xrotation
		JOINT rknee
		{
			OFFSET -0.043257 -0.383688 -0.004843
			CHANNELS 3 Zrotation Yrotation Xrotation
			JOINT rankle
			{
				OFFSET 0.019056 -0.420046 -0.034562
				CHANNELS 3 Zrotation Yrotation Xrotation
				JOINT rtoe
				{
					OFFSET -0.034840 -0.062106 0.130323
					CHANNELS 3 Zrotation Yrotation Xrotation
					End Site
					{
						OFFSET 0.000000 0.000000 0.000000
					}
				}
			}
		}
	}
	JOINT lowerback
	{
		OFFSET 0.004439 0.124404 -0.038385
		CHANNELS 3 Zrotation Yrotation Xrotation
		JOINT upperback
		{
			OFFSET 0.004488 0.137956 0.026820
			CHANNELS 3 Zrotation Yrotation Xrotation
			JOINT chest
			{
				OFFSET -0.002265 0.056032 0.002855
				CHANNELS 3 Zrotation Yrotation Xrotation
				JOINT lowerneck
				{
					OFFSET -0.013390 0.211636 -0.033468
					CHANNELS 3 Zrotation Yrotation Xrotation
					JOINT upperneck
					{
						OFFSET 0.010113 0.088937 0.050410
						CHANNELS 3 Zrotation Yrotation Xrotation
						End Site
						{
							OFFSET 0.000000 0.000000 0.000000
						}
					}
				}
				JOINT lclavicle
				{
					OFFSET 0.071702 0.114000 -0.018898
					CHANNELS 3 Zrotation Yrotation Xrotation
					JOINT lshoulder
					{
						OFFSET 0.122921 0.045205 -0.019046
						CHANNELS 3 Zrotation Yrotation Xrotation
						JOINT lelbow
						{
							OFFSET 0.255332 -0.015649 -0.022946
							CHANNELS 3 Zrotation Yrotation Xrotation
							JOINT lwrist
							{
								OFFSET 0.265709 0.012698 -0.007375
								CHANNELS 3 Zrotation Yrotation Xrotation
								End Site
								{
									OFFSET 0.000000 0.000000 0.000000
								}
							}
						}
					}
				}
				JOINT rclavicle
				{
					OFFSET -0.082954 0.112472 -0.023707
					CHANNELS 3 Zrotation Yrotation Xrotation
					JOINT rshoulder
					{
						OFFSET -0.113228 0.046853 -0.008472
						CHANNELS 3 Zrotation Yrotation Xrotation
						JOINT relbow
						{
							OFFSET -0.260127 -0.014369 -0.031269
							CHANNELS 3 Zrotation Yrotation Xrotation
							JOINT rwrist
							{
								OFFSET -0.269108 0.006794 -0.006027
								CHANNELS 3 Zrotation Yrotation Xrotation
								End Site
								{
									OFFSET 0.000000 0.000000 0.000000
								}
							}
						}
					}
				}
			}
		}
	}
}
MOTION
Frames: 17
Frame Time: 0.033333
0.013263 0.238954 0.994345 179.630755 2.954218 94.106596 5.229291 4.126437 2.034509 0.786950 -4.142371 -6.832158 -0.311607 10.373620 -4.257311 0.000000 -0.000000 0.000000 -1.538421 -3.890368 -2.110553 0.429063 1.119973 1.279959 4.044488 -6.995525 -4.726964 0.000000 -0.000000 0.000000 -0.688342 0.780790 2.918411 2.659683 -0.783830 -2.677053 2.979969 -0.111077 -6.851452 -3.632565 -0.683667 2.486315 2.605816 1.254730 -5.741887 -21.321664 8.807484 5.063696 -58.431187 -4.425181 4.653460 5.166955 -13.595369 8.651896 14.793146 -9.294906 -20.685542 21.488001 -5.424725 6.551483 52.707838 -0.899899 4.448776 -10.046065 7.740787 -6.256012 -18.393331 10.264033 -20.074807 
0.013166 0.238885 0.993962 179.758976 3.036283 94.100624 5.285241 4.033486 2.006662 0.839513 -4.154211 -6.805258 -0.375787 10.402823 -4.123418 0.000000 -0.000000 0.000000 -1.482264 -3.936914 -2.051062 0.433361 0.910701 1.240474 4.175536 -6.877945 -4.625752 0.000000 -0.000000 0.000000 -0.276598 0.647080 2.990989 2.547542 -0.809222 -3.579698 2.819659 -0.094578 -5.962740 -3.781809 -0.761613 2.824092 2.646877 1.550840 -5.890507 -21.167003 8.402698 5.078952 -58.569850 -4.536720 5.238573 5.888981 -14.628960 8.318806 14.541017 -9.008293 -21.594012 21.048974 -5.733424 6.673229 52.913475 -1.146211 5.207795 -10.728907 9.708585 -4.984560 -16.630618 10.599291 -18.735495 
0.013210 0.238980 0.993842 179.815014 3.037681 94.126062 5.295542 4.086273 2.009321 0.830321 -4.160775 -6.875029 -0.359232 10.349603 -4.056321 0.000000 -0.000000 0.000000 -1.481771 -3.943401 -1.993515 0.426986 0.778337 1.131165 4.120334 -6.831935 -4.584191 0.000000 -0.000000 0.000000 -0.169010 0.583067 2.781854 2.622003 -0.907445 -3.418395 2.827297 -0.080380 -5.998654 -4.059990 -0.853411 3.092278 2.729415 1.762335 -5.829452 -21.054613 7.977302 5.192390 -58.671006 -4.583954 5.288814 6.183470 -15.236675 7.821508 14.685402 -8.794981 -21.385179 20.899257 -5.390323 7.046082 52.761560 -1.608137 5.641234 -11.008578 12.159939 -3.813037 -16.172646 11.134698 -17.818772 
0.013335 0.238913 0.993707 179.550976 2.988057 94.205176 5.205800 4.004547 1.956228 0.801839 -3.841460 -6.864704 -0.250382 10.352741 -4.059137 0.000000 -0.000000 0.000000 -1.575634 -4.052991 -2.126389 0.445421 0.870074 1.097505 4.136789 -6.527682 -4.523442 0.000000 -0.000000 0.000000 -0.012770 0.725201 2.637450 2.560713 -0.877832 -3.436851 2.779429 -0.076179 -6.055542 -4.014975 -0.676632 3.208796 2.669263 2.023221 -5.535565 -20.910718 7.788762 5.170419 -58.627123 -4.746079 5.229775 6.466252 -15.553970 7.804015 13.878180 -9.274467 -20.526686 20.658793 -5.167247 7.221387 52.731939 -1.489481 6.112426 -10.990449 13.938367 -2.383144 -14.918223 11.884053 -17.171406 
0.013417 0.238697 0.993682 179.488981 2.928939 94.216714 5.131424 3.980066 1.905337 0.812983 -3.806664 -6.798596 -0.294966 10.369613 -4.046206 0.000000 -0.000000 0.000000 -1.637579 -4.004858 -2.139504 0.443492 0.856418 1.049794 4.118992 -6.510408 -4.495098 0.000000 -0.000000 0.000000 0.068820 0.689501 2.588847 2.521627 -0.913518 -3.385399 2.750871 -0.072926 -6.116329 -4.030653 -0.658064 3.426266 2.687927 2.118440 -5.498608 -20.859352 7.713068 5.227576 -58.601068 -4.731091 5.223762 6.607395 -15.946429 8.000998 13.894068 -9.216259 -20.261349 20.595991 -4.921057 7.226966 52.606707 -1.236196 6.362860 -10.743672 14.600666 -1.331163 -14.665595 12.229082 -16.639194 
0.013444 0.238559 0.993669 179.397961 2.902748 94.183820 5.089421 3.978425 1.964892 0.827921 -3.749518 -6.850181 -0.302174 10.373330 -4.032305 0.000000 -0.000000 0.000000 -1.680962 -3.971041 -2.070001 0.456176 0.860164 0.937056 4.084588 -6.482900 -4.454654 0.000000 -0.000000 0.000000 0.221462 0.648029 2.675221 2.474070 -0.899223 -3.451311 2.765360 -0.064593 -6.175035 -3.940515 -0.685710 3.462198 2.592655 2.269079 -5.362066 -20.870875 7.593667 5.192474 -58.527942 -4.627767 5.188756 6.631322 -15.941343 7.775632 13.913978 -9.310360 -19.802012 20.552466 -4.450055 7.241272 52.407702 -0.806620 6.799090 -10.324682 14.892558 -0.375826 -14.665594 12.488400 -15.467983 
0.013615 0.238533 0.993463 179.356363 2.900202 94.151184 5.084822 4.021229 2.045045 0.839282 -3.733807 -6.928478 -0.233189 10.403279 -4.039303 0.000000 -0.000000 0.000000 -1.685420 -3.942967 -2.028692 0.452498 0.899279 0.918633 4.051760 -6.467372 -4.475128 0.000000 -0.000000 0.000000 0.320297 0.600839 2.639768 2.509589 -0.895842 -3.385228 2.771289 0.049668 -6.209851 -3.905817 -0.647035 3.558097 2.497339 2.268234 -5.194255 -20.884249 7.450772 5.174693 -58.489802 -4.583235 5.131977 6.547106 -15.888902 7.708170 14.138017 -9.319354 -19.858897 20.668469 -4.057361 7.286771 52.302188 -0.275568 6.966771 -10.296295 14.849153 0.143844 -14.984859 12.843723 -14.511936 
0.013857 0.238718 0.993390 179.347888 2.890967 94.096241 5.083827 4.099192 2.141976 0.860039 -3.774101 -6.960703 -0.244787 10.376688 -4.003653 0.000000 -0.000000 0.000000 -1.701542 -3.955543 -1.965969 0.491671 0.899288 0.939527 3.993881 -6.447317 -4.490039 0.000000 -0.000000 0.000000 0.390332 0.684758 2.513560 2.588222 -0.862065 -3.230437 2.780672 0.057731 -6.215042 -3.895818 -0.643197 3.679101 2.388735 2.094676 -5.076041 -20.870472 7.414541 5.153720 -58.541853 -4.625086 5.101399 6.522199 -15.652224 7.802015 14.178439 -9.229859 -19.822355 20.798092 -3.979975 7.188501 52.280285 0.012491 6.986696 -10.509802 15.191739 0.138386 -15.220913 12.776751 -14.381029 
0.014309 0.239129 0.993173 179.417912 2.911417 94.097396 5.173884 4.240102 2.181471 0.853983 -3.871670 -7.020179 -0.294755 10.254089 -3.977486 0.000000 -0.000000 0.000000 -1.640385 -4.038228 -1.903455 0.461863 0.869382 0.890839 4.017365 -6.405970 -4.480705 0.000000 -0.000000 0.000000 0.353959 0.718105 2.458559 2.695121 -0.848025 -3.167463 2.902627 0.187627 -6.282249 -3.834333 -0.676940 3.696302 2.296590 2.002490 -4.935265 -20.726512 7.439438 5.212660 -58.749116 -4.561022 5.164518 6.464624 -15.604920 8.117938 14.314852 -9.023031 -19.801375 20.687477 -4.057191 7.151809 52.471099 0.155712 6.849994 -10.614731 15.556053 -0.424029 -15.558236 12.667248 -15.267113 
0.014791 0.239371 0.993125 179.591871 2.880516 94.018428 5.173920 4.202587 2.273604 0.895152 -3.896191 -7.047309 -0.338754 10.187692 -4.008300 0.000000 -0.000000 0.000000 -1.652059 -4.026489 -1.752409 0.494989 0.780745 0.876640 3.949539 -6.476004 -4.560131 0.000000 -0.000000 0.000000 0.362867 0.714983 2.270959 2.790662 -0.894570 -3.008930 2.908227 0.116874 -6.132130 -3.768382 -0.506615 3.817778 2.243449 2.090477 -5.027829 -20.804096 7.441919 5.348842 -58.791055 -4.490538 5.082054 6.659867 -15.573025 7.886028 14.323620 -9.071608 -19.649220 21.000409 -3.858503 7.327394 52.364318 0.310257 6.899871 -10.815014 16.102163 -1.029483 -16.047426 12.511005 -15.826321 
0.015136 0.239581 0.992955 179.836495 2.821255 94.010818 5.133755 4.172580 2.246386 0.933873 -4.045550 -7.027365 -0.404869 10.153858 -4.004453 0.000000 -0.000000 0.000000 -1.681683 -4.103036 -1.632850 0.496002 0.671328 0.766552 3.940052 -6.526836 -4.577685 0.000000 -0.000000 0.000000 0.405287 0.692215 2.313516 2.785799 -0.964716 -3.080119 2.895096 0.141181 -6.120347 -3.761838 -0.553665 3.789032 2.304263 1.978492 -5.012134 -20.786280 7.550205 5.358525 -58.746282 -4.468620 4.991318 6.457304 -15.285033 7.719674 14.600869 -9.087344 -19.762910 21.043657 -3.978258 7.253109 52.411772 0.233213 7.042530 -10.714672 16.401251 -0.731508 -16.362090 12.642312 -15.487932 
0.015681 0.239535 0.992869 -179.991635 2.774804 94.043700 5.147702 4.178600 2.195250 0.918646 -4.116336 -7.071342 -0.354111 10.069925 -3.915523 0.000000 -0.000000 0.000000 -1.686374 -4.188120 -1.660509 0.504648 0.612046 0.794162 3.909664 -6.569584 -4.591556 0.000000 -0.000000 0.000000 0.381548 0.758899 2.242068 2.779100 -0.951763 -2.983778 2.927267 0.108264 -6.130422 -3.693636 -0.714642 3.732437 2.356936 1.968386 -5.059629 -20.830899 7.608990 5.343193 -58.739409 -4.415485 4.967210 6.488362 -15.123037 7.798251 14.386838 -9.165829 -19.818390 21.061362 -4.059675 7.206158 52.442992 0.148955 7.116113 -10.573338 16.473055 -0.093050 -15.605592 12.935342 -15.077858 
0.016134 0.239724 0.992869 -179.890212 2.770204 93.939100 5.169736 4.241643 2.265233 0.945350 -4.177710 -7.009767 -0.399541 10.058205 -3.955857 0.000000 -0.000000 0.000000 -1.648116 -4.208796 -1.510746 0.472940 0.601571 0.803349 3.914697 -6.602740 -4.653778 0.000000 -0.000000 0.000000 0.475591 0.797546 2.204135 2.757930 -0.942135 -2.808613 2.906466 0.096807 -6.107783 -3.756535 -0.809336 3.767783 2.387579 1.910754 -5.142399 -20.886112 7.519393 5.427082 -58.756138 -4.420203 4.821732 6.460715 -14.674071 7.878372 14.422553 -9.196384 -19.651118 21.098873 -3.956154 7.266523 52.503961 0.122439 7.067714 -10.498713 16.286388 0.160290 -15.458283 13.063252 -14.897192 
0.016645 0.239483 0.992837 -179.735054 2.700543 93.966331 5.141976 4.070902 2.158402 0.923510 -4.171126 -6.939273 -0.371734 10.099614 -3.972776 0.000000 -0.000000 0.000000 -1.716621 -4.229732 -1.516378 0.542911 0.481082 0.782642 3.901295 -6.650409 -4.668122 0.000000 -0.000000 0.000000 0.464824 0.861073 2.359170 2.760067 -0.925573 -2.936097 2.898616 0.097222 -6.158330 -3.791974 -0.801743 3.732124 2.434470 1.872847 -5.188392 -21.049646 7.482529 5.448860 -58.639512 -4.283601 4.739538 6.422083 -14.522881 7.423944 14.527498 -9.294117 -19.499442 21.229118 -4.005887 7.348335 52.493511 -0.140092 7.052895 -10.521275 16.407624 -0.028005 -15.635491 12.998007 -14.760845 
0.017015 0.239618 0.992866 -179.599029 2.637637 93.939016 5.105668 4.013476 2.172771 0.944037 -4.278180 -6.922597 -0.381958 10.111621 -3.913338 0.000000 -0.000000 0.000000 -1.766912 -4.330215 -1.380126 0.551017 0.515330 0.657782 3.862949 -6.668825 -4.673889 0.000000 -0.000000 0.000000 0.517344 0.916791 2.255683 2.729065 -0.955244 -2.785148 2.856492 0.142031 -6.163718 -3.750972 -0.814137 3.787428 2.419436 1.870281 -5.101986 -21.065473 7.599778 5.386308 -58.614694 -4.280496 4.687255 6.241755 -14.220841 7.532603 14.627182 -9.216810 -19.441371 21.212540 -4.093327 7.426288 52.600404 -0.293457 7.033138 -10.489964 16.427464 -0.098771 -15.884179 12.852067 -15.125676 
0.017451 0.239643 0.992882 -179.523760 2.610590 93.917945 5.121782 3.987318 2.177808 0.958244 -4.289410 -6.911478 -0.391360 10.063595 -3.884651 0.000000 -0.000000 0.000000 -1.779387 -4.390843 -1.294428 0.585690 0.509009 0.560703 3.872342 -6.721764 -4.673329 0.000000 -0.000000 0.000000 0.577772 1.009010 2.187478 2.687614 -0.968014 -2.605308 2.890439 0.129776 -6.196792 -3.754711 -0.859210 3.767257 2.384452 1.964515 -5.130898 -21.122210 7.548070 5.474425 -58.714222 -4.242665 4.595349 6.308091 -14.037326 7.480766 14.682398 -9.112211 -19.365382 21.181464 -4.101706 7.544178 52.657987 -0.448133 6.920821 -10.542549 16.608982 -0.090731 -15.885100 12.706835 -15.389538 
0.017790 0.239449 0.992870 -179.449116 2.583139 93.941249 5.101273 3.979857 2.128403 0.987267 -4.324044 -6.930407 -0.398023 10.079165 -3.850199 0.000000 -0.000000 0.000000 -1.775745 -4.385241 -1.346483 0.599283 0.507862 0.607723 3.812037 -6.792729 -4.694150 0.000000 -0.000000 0.000000 0.669987 0.994400 2.269842 2.638087 -0.919722 -2.775832 2.856410 0.102807 -6.153326 -3.749598 -0.863573 3.835887 2.398927 2.050671 -5.127155 -21.039934 7.637990 5.531488 -58.861314 -4.154630 4.577289 6.341575 -13.870335 7.734357 14.599785 -9.070817 -19.576721 21.110626 -4.184053 7.587182 52.671941 -0.495013 6.896758 -10.407050 16.435586 0.244325 -16.039025 12.691646 -15.271505 
